<svg width="421" height="544" viewBox="0 0 421 544" fill="none" xmlns="http://www.w3.org/2000/svg">
<path d="M328.317 36.637C326.795 38.5537 318.953 55.9033 318.953 55.9033L282.463 82.5697L239.378 110.099L257.05 123.501L296.061 97.4794L328.24 64.7511C339.04 64.6973 350.178 47.3378 350.178 47.3378C350.178 47.3378 349.657 51.7241 351.766 51.6165C352.704 51.569 359.421 49.4261 354.084 36.2223C353.518 34.8203 349.311 32.7079 349.311 32.7079C349.311 32.7079 354.885 33.1369 354.125 29.0344C354.125 29.0344 342.761 26.9161 340.782 27.6835C338.802 28.452 329.839 34.7213 328.317 36.637Z" fill="#FCBDA4"/>
<path d="M328.317 36.637C326.795 38.5537 318.953 55.9033 318.953 55.9033L282.463 82.5697L239.378 110.099L257.05 123.501L296.061 97.4794L328.24 64.7511C339.04 64.6973 350.178 47.3378 350.178 47.3378C350.178 47.3378 349.657 51.7241 351.766 51.6165C352.704 51.569 359.421 49.4261 354.084 36.2223C353.518 34.8203 349.311 32.7079 349.311 32.7079C349.311 32.7079 354.885 33.1369 354.125 29.0344C354.125 29.0344 342.761 26.9161 340.782 27.6835C338.802 28.452 329.839 34.7213 328.317 36.637Z" fill="url(#paint0_linear_323_1488)" fill-opacity="0.2"/>
<path d="M41.6865 113.366C44.8611 115.95 47.3473 118.449 47.3473 118.449L93.8174 128.097L130.164 119.661L152.459 135.345L102.769 150.279L44.0076 134.576C37.6732 134.563 30.4244 135.973 25.6673 134.836C21.7308 133.896 17.9187 132.545 13.3944 129.239C10.4874 127.114 8.09074 125.102 8.39789 124.619C9.17114 123.403 10.8454 123.954 10.8454 123.954L13.697 125.695L16.5992 127.069C16.5992 127.069 5.00142 117.539 5.21958 117.168C5.99015 115.855 8.40288 116.477 8.40288 116.477C8.40288 116.477 4.34559 113.338 4.78099 112.657C5.88957 110.926 7.95082 111.877 7.95082 111.877C7.95082 111.877 7.65907 111.097 7.95335 110.687C9.14228 109.031 12.4654 110.473 14.089 111.082C14.089 111.082 19.2535 113.813 20.9865 114.267C30.6475 116.802 32.7582 115.821 34.0873 115.54C33.4813 113.039 30.4335 112.132 28.7906 109.775C26.6848 106.757 26.0301 100.233 31.3821 105.691C36.0972 110.5 38.5117 110.782 41.6865 113.366Z" fill="#FCBDA4"/>
<path d="M148.731 112.198C158.127 106.994 166.559 102.503 179.916 103.082L197.188 119.395H211.102L219.381 112.677L226.934 106.92C229.543 108.143 231.781 109.701 233.651 111.54L259.079 103.562L268.675 122.753L243.727 143.383V195.199L251.058 251.742L147.291 249.414L150.17 226.865L151.829 195.257V150.1L127.141 151.54L119.464 117.955L148.731 112.198Z" fill="url(#paint1_linear_323_1488)"/>
<path d="M148.731 112.198C158.127 106.994 166.559 102.503 179.916 103.082L197.188 119.395H211.102L219.381 112.677L226.934 106.92C229.543 108.143 231.781 109.701 233.651 111.54L259.079 103.562L268.675 122.753L243.727 143.383V195.199L251.058 251.742L147.291 249.414L150.17 226.865L151.829 195.257V150.1L127.141 151.54L119.464 117.955L148.731 112.198Z" fill="url(#paint2_linear_323_1488)" fill-opacity="0.2"/>
<path d="M197.188 119.874L179.916 103.562L215.9 105.001L225.975 107.88L211.102 119.395L197.188 119.874Z" fill="#FCBDA4"/>
<mask id="mask0_323_1488" style="mask-type:alpha" maskUnits="userSpaceOnUse" x="190" y="22" width="99" height="100">
<path d="M208.564 82.6825L190.245 105.582L226.502 107.108L228.028 103.673C238.902 110.595 245.255 114.451 257.034 121.229C271.883 104.962 286.696 76.9577 287.184 71.6146C287.673 66.2715 289.842 64.7238 286.421 51.0055C282.999 37.2871 258.56 21.9999 247.111 22C235.661 22.0001 235.871 22.4544 229.173 26.5798C221.332 33.4593 218.495 37.9398 214.671 46.4257C212.086 45.1543 210.73 44.7066 208.564 44.5174C201.13 46.4629 198.573 51.6362 199.023 62.0733C201.757 71.0656 204.109 75.3279 208.564 82.6825Z" fill="#D9D9D9"/>
</mask>
<g mask="url(#mask0_323_1488)">
<path d="M216.773 123.004L228.546 103.808C228.546 103.808 250.292 120.632 256.863 121.297C256.863 121.297 281.991 93.4536 287.33 71.8683L242.619 34.5622L220.679 60.3919C222.187 54.5258 213.388 40.3998 205.375 44.9724C188.012 54.8805 208.712 82.7338 208.712 82.7338L189.765 105.665" fill="#FCBDA4"/>
<path d="M216.773 123.004L228.546 103.808C228.546 103.808 250.292 120.632 256.863 121.297C256.863 121.297 281.991 93.4536 287.33 71.8683L242.619 34.5622L220.679 60.3919C222.187 54.5258 213.388 40.3998 205.375 44.9724C188.012 54.8805 208.712 82.7338 208.712 82.7338L189.765 105.665" fill="url(#paint3_linear_323_1488)" fill-opacity="0.2"/>
<path d="M221.299 63.166C220.818 53.8239 215.986 48.1649 214.583 46.7096C218.459 36.3932 231.336 11.5453 261.908 26.2602C298.406 43.8281 287.33 71.8684 287.33 71.8684L244.378 43.024L229.371 65.973L221.299 63.166V63.166Z" fill="#563A2B"/>
<path d="M221.299 63.166C220.818 53.8239 215.986 48.1649 214.583 46.7096C218.459 36.3932 231.336 11.5453 261.908 26.2602C298.406 43.8281 287.33 71.8684 287.33 71.8684L244.378 43.024L229.371 65.973L221.299 63.166V63.166Z" fill="url(#paint4_linear_323_1488)" fill-opacity="0.2"/>
<path opacity="0.402158" fill-rule="evenodd" clip-rule="evenodd" d="M228.547 103.808L215.244 90.3835L223.85 110.827L228.547 103.808Z" fill="black"/>
<path fill-rule="evenodd" clip-rule="evenodd" d="M261.437 81.3669L258.255 97.9033L251.795 93.7951L261.437 81.3669Z" fill="#C58268"/>
<path d="M248.044 108.36L247.565 101.163L250.443 103.082L252.842 105.481L251.403 109.319L248.044 108.36Z" fill="#FF7777"/>
<path d="M242.213 98.5269C247.657 100.001 251.032 101.302 254.75 107.008" stroke="#942626" stroke-width="1.91911"/>
</g>
<path d="M248.973 77.2566L250.954 83.3292" stroke="#0D0B6D" stroke-width="0.859302"/>
<path d="M247.107 81.5229L252.82 79.0627" stroke="#0D0B6D" stroke-width="0.859302"/>
<path d="M265.927 87.4172L267.908 93.4899" stroke="#0D0B6D" stroke-width="0.859302"/>
<path d="M264.061 91.6836L269.774 89.2233" stroke="#0D0B6D" stroke-width="0.859302"/>
<path d="M243.727 68.5385L252.842 67.0991" stroke="black" stroke-width="0.959553"/>
<path d="M270.985 74.3386L277.089 81.2604" stroke="black" stroke-width="0.959553"/>
<path d="M223.096 110.279L220.697 102.123H226.455L228.853 104.042L226.455 107.4L223.096 110.279Z" fill="#977162"/>
<mask id="mask1_323_1488" style="mask-type:alpha" maskUnits="userSpaceOnUse" x="189" y="22" width="100" height="100">
<path d="M208.311 82.6825L189.991 105.582L226.248 107.108L227.775 103.673C238.648 110.595 245.002 114.451 256.78 121.229C271.63 104.962 286.442 76.9577 286.931 71.6146C287.419 66.2715 289.589 64.7238 286.167 51.0055C282.746 37.2871 258.307 21.9999 246.857 22C235.408 22.0001 235.617 22.4544 228.92 26.5798C221.078 33.4593 218.242 37.9398 214.417 46.4257C211.832 45.1543 210.477 44.7066 208.311 44.5174C200.876 46.4629 198.319 51.6362 198.769 62.0733C201.504 71.0656 203.856 75.3279 208.311 82.6825Z" fill="#D9D9D9"/>
</mask>
<g mask="url(#mask1_323_1488)">
<path d="M216.52 123.004L228.293 103.808C228.293 103.808 250.039 120.632 256.61 121.297C256.61 121.297 281.738 93.4536 287.077 71.8683L242.366 34.5622L220.426 60.3919C221.934 54.5258 213.135 40.3998 205.122 44.9724C187.759 54.8805 208.459 82.7338 208.459 82.7338L189.512 105.665" fill="#FCBDA4"/>
<path d="M216.52 123.004L228.293 103.808C228.293 103.808 250.039 120.632 256.61 121.297C256.61 121.297 281.738 93.4536 287.077 71.8683L242.366 34.5622L220.426 60.3919C221.934 54.5258 213.135 40.3998 205.122 44.9724C187.759 54.8805 208.459 82.7338 208.459 82.7338L189.512 105.665" fill="url(#paint5_linear_323_1488)" fill-opacity="0.2"/>
<path d="M221.046 63.166C220.565 53.8239 215.733 48.1649 214.33 46.7096C218.206 36.3932 231.083 11.5453 261.655 26.2602C298.153 43.8281 287.077 71.8684 287.077 71.8684L244.125 43.024L229.118 65.973L221.046 63.166V63.166Z" fill="#563A2B"/>
<path d="M221.046 63.166C220.565 53.8239 215.733 48.1649 214.33 46.7096C218.206 36.3932 231.083 11.5453 261.655 26.2602C298.153 43.8281 287.077 71.8684 287.077 71.8684L244.125 43.024L229.118 65.973L221.046 63.166V63.166Z" fill="url(#paint6_linear_323_1488)" fill-opacity="0.2"/>
<path opacity="0.402158" fill-rule="evenodd" clip-rule="evenodd" d="M228.293 103.808L214.991 90.3835L223.597 110.827L228.293 103.808Z" fill="black"/>
<path fill-rule="evenodd" clip-rule="evenodd" d="M261.184 81.3669L258.001 97.9033L251.541 93.7951L261.184 81.3669Z" fill="#C58268"/>
<path d="M254.497 107.008C252.358 99.552 248.753 98.5046 241.96 98.5269L246.832 105.001L254.497 107.008Z" stroke="#942626" stroke-width="1.91911"/>
</g>
<path d="M243.473 68.5385L252.589 67.0991" stroke="black" stroke-width="0.959553"/>
<path d="M270.732 74.3386L276.836 81.2604" stroke="black" stroke-width="0.959553"/>
<path d="M222.843 110.279L220.444 102.123H226.201L228.6 104.042L226.201 107.4L222.843 110.279Z" fill="#977162"/>
<circle cx="249.71" cy="81.0125" r="3.35844" fill="white"/>
<ellipse cx="249.71" cy="82.4518" rx="2.39888" ry="1.91911" fill="#0D0B6D"/>
<circle cx="266.982" cy="90.6079" r="3.35844" fill="white"/>
<ellipse cx="266.982" cy="92.0473" rx="2.39888" ry="1.91911" fill="#0D0B6D"/>
<defs>
<linearGradient id="paint0_linear_323_1488" x1="261.958" y1="113.158" x2="313.774" y2="63.7405" gradientUnits="userSpaceOnUse">
<stop stop-color="#736161"/>
<stop offset="1" stop-color="#736161" stop-opacity="0"/>
</linearGradient>
<linearGradient id="paint1_linear_323_1488" x1="239.409" y1="128.99" x2="162.644" y2="171.69" gradientUnits="userSpaceOnUse">
<stop stop-color="#9ECBF7"/>
<stop offset="1" stop-color="#C6DFF7"/>
</linearGradient>
<linearGradient id="paint2_linear_323_1488" x1="261.958" y1="107.4" x2="222.616" y2="152.499" gradientUnits="userSpaceOnUse">
<stop stop-color="#736161"/>
<stop offset="1" stop-color="#736161" stop-opacity="0"/>
</linearGradient>
<linearGradient id="paint3_linear_323_1488" x1="274.432" y1="91.0878" x2="249.004" y2="85.3305" gradientUnits="userSpaceOnUse">
<stop stop-color="#736161"/>
<stop offset="1" stop-color="#736161" stop-opacity="0"/>
</linearGradient>
<linearGradient id="paint4_linear_323_1488" x1="266.756" y1="47.4282" x2="237.969" y2="37.3529" gradientUnits="userSpaceOnUse">
<stop/>
<stop offset="1" stop-opacity="0"/>
</linearGradient>
<linearGradient id="paint5_linear_323_1488" x1="274.179" y1="91.0878" x2="248.751" y2="85.3305" gradientUnits="userSpaceOnUse">
<stop stop-color="#736161"/>
<stop offset="1" stop-color="#736161" stop-opacity="0"/>
</linearGradient>
<linearGradient id="paint6_linear_323_1488" x1="266.503" y1="47.4282" x2="237.716" y2="37.3529" gradientUnits="userSpaceOnUse">
<stop/>
<stop offset="1" stop-opacity="0"/>
</linearGradient>
</defs>
</svg>
