<svg width="103" height="104" viewBox="0 0 103 104" fill="none" xmlns="http://www.w3.org/2000/svg">
<mask id="mask0_290_79" style="mask-type:alpha" maskUnits="userSpaceOnUse" x="0" y="0" width="103" height="104">
<path d="M19.3553 63.2403L0.263916 87.1046L38.049 88.6956L39.64 85.1159C50.9718 92.3299 57.5932 96.348 69.8681 103.412C85.3437 86.4585 100.78 57.2743 101.289 51.7059C101.799 46.1376 104.06 44.5247 100.494 30.2281C96.9281 15.9315 71.459 -0.000148583 59.5269 0C47.5947 0.000148585 47.8128 0.473505 40.8332 4.77286C32.6612 11.9424 29.7053 16.6116 25.7191 25.4552C23.0253 24.1303 21.6129 23.6638 19.3553 23.4665C11.6074 25.494 8.94265 30.8855 9.41189 41.7625C12.2616 51.1338 14.7125 55.5758 19.3553 63.2403Z" fill="#D9D9D9"/>
</mask>
<g mask="url(#mask0_290_79)">
<path d="M27.9106 105.261L40.18 85.2568C40.18 85.2568 62.8427 102.789 69.6904 103.482C69.6904 103.482 95.8772 74.4655 101.442 51.9704L54.8459 13.0917L31.9808 40.0102C33.5527 33.8968 24.3827 19.1754 16.0321 23.9407C-2.06251 34.2665 19.5097 63.2939 19.5097 63.2939L-0.236388 87.1918" fill="#FCBDA4"/>
<path d="M27.9106 105.261L40.18 85.2568C40.18 85.2568 62.8427 102.789 69.6904 103.482C69.6904 103.482 95.8772 74.4655 101.442 51.9704L54.8459 13.0917L31.9808 40.0102C33.5527 33.8968 24.3827 19.1754 16.0321 23.9407C-2.06251 34.2665 19.5097 63.2939 19.5097 63.2939L-0.236388 87.1918" fill="url(#paint0_linear_290_79)" fill-opacity="0.2"/>
<path d="M32.6274 42.9012C32.1257 33.1652 27.0902 27.2677 25.6282 25.7511C29.6675 14.9998 43.087 -10.8955 74.9475 4.43967C112.984 22.7481 101.442 51.9704 101.442 51.9704L56.6793 21.9101L41.0391 45.8265L32.6274 42.9012V42.9012Z" fill="#563A2B"/>
<path d="M32.6274 42.9012C32.1257 33.1652 27.0902 27.2677 25.6282 25.7511C29.6675 14.9998 43.087 -10.8955 74.9475 4.43967C112.984 22.7481 101.442 51.9704 101.442 51.9704L56.6793 21.9101L41.0391 45.8265L32.6274 42.9012V42.9012Z" fill="url(#paint1_linear_290_79)" fill-opacity="0.2"/>
<path opacity="0.402158" fill-rule="evenodd" clip-rule="evenodd" d="M40.1801 85.2566L26.3167 71.2661L35.2855 92.5713L40.1801 85.2566Z" fill="black"/>
<path fill-rule="evenodd" clip-rule="evenodd" d="M74.4572 61.8693L71.1402 79.1027L64.408 74.8214L74.4572 61.8693Z" fill="#C58268"/>
<path fill-rule="evenodd" clip-rule="evenodd" d="M65.5804 61.5783C64.7155 63.6256 62.3517 64.5808 60.302 63.7125C58.2513 62.8443 57.2906 60.4807 58.1557 58.4344C59.0206 56.3871 61.3844 55.4318 63.4345 56.2996C65.4848 57.1684 66.4453 59.531 65.5804 61.5783" fill="white"/>
<path fill-rule="evenodd" clip-rule="evenodd" d="M83.0999 73.0353C82.235 75.0826 79.8713 76.0379 77.8215 75.1695C75.7708 74.3013 74.8101 71.9377 75.6753 69.8914C76.5402 67.8441 78.904 66.8889 80.9541 67.7566C83.0044 68.6254 83.9649 70.988 83.0999 73.0353" fill="white"/>
<path d="M54.4231 79.7527C63.5245 79.271 66.8562 80.7428 67.4882 88.5909L54.4231 79.7527Z" stroke="#942626" stroke-width="2"/>
</g>
<ellipse cx="62" cy="61.5" rx="3" ry="2.5" fill="#0D0B6D"/>
<ellipse cx="80" cy="72.5" rx="3" ry="2.5" fill="#0D0B6D"/>
<path d="M56 48.5L65.5 47" stroke="black"/>
<path d="M84.4073 54.5447L90.7686 61.7582" stroke="black"/>
<path d="M34.5 92L32 83.5H38L40.5 85.5L38 89L34.5 92Z" fill="#977162"/>
<defs>
<linearGradient id="paint0_linear_290_79" x1="88" y1="72" x2="61.5" y2="66" gradientUnits="userSpaceOnUse">
<stop stop-color="#736161"/>
<stop offset="1" stop-color="#736161" stop-opacity="0"/>
</linearGradient>
<linearGradient id="paint1_linear_290_79" x1="80" y1="26.5" x2="50" y2="16" gradientUnits="userSpaceOnUse">
<stop/>
<stop offset="1" stop-opacity="0"/>
</linearGradient>
</defs>
</svg>
