<svg width="177" height="240" viewBox="0 0 177 240" fill="none" xmlns="http://www.w3.org/2000/svg">
<path d="M31 94C40.7922 88.577 49.5795 83.8966 63.5 84.4998L81.5 101.5H96L104.629 94.4996L112.5 88.4998C115.219 89.7744 117.551 91.3978 119.5 93.3142L146 84.9999L156 105L130 126.5V180.5L137.641 239.426L29.5 237L32.5 213.5L34.229 180.56V133.5L8.5 135L0.5 99.9999L31 94Z" fill="url(#paint0_linear_290_392)"/>
<path d="M31 94C40.7922 88.577 49.5795 83.8966 63.5 84.4998L81.5 101.5H96L104.629 94.4996L112.5 88.4998C115.219 89.7744 117.551 91.3978 119.5 93.3142L146 84.9999L156 105L130 126.5V180.5L137.641 239.426L29.5 237L32.5 213.5L34.229 180.56V133.5L8.5 135L0.5 99.9999L31 94Z" fill="url(#paint1_linear_290_392)" fill-opacity="0.2"/>
<path d="M81.5 102L63.5 85L101 86.5L111.5 89.5L96 101.5L81.5 102Z" fill="#FCBDA4"/>
<mask id="mask0_290_392" style="mask-type:alpha" maskUnits="userSpaceOnUse" x="74" y="0" width="103" height="104">
<path d="M93.3553 63.2403L74.2639 87.1046L112.049 88.6956L113.64 85.1159C124.972 92.3299 131.593 96.348 143.868 103.412C159.344 86.4585 174.78 57.2743 175.289 51.7059C175.799 46.1376 178.06 44.5247 174.494 30.2281C170.928 15.9315 145.459 -0.000148583 133.527 0C121.595 0.000148585 121.813 0.473505 114.833 4.77286C106.661 11.9424 103.705 16.6116 99.7191 25.4552C97.0253 24.1303 95.6129 23.6638 93.3553 23.4665C85.6074 25.494 82.9426 30.8855 83.4119 41.7625C86.2616 51.1338 88.7125 55.5758 93.3553 63.2403Z" fill="#D9D9D9"/>
</mask>
<g mask="url(#mask0_290_392)">
<path d="M101.911 105.261L114.18 85.2568C114.18 85.2568 136.843 102.789 143.69 103.482C143.69 103.482 169.877 74.4655 175.442 51.9704L128.846 13.0917L105.981 40.0102C107.553 33.8968 98.3827 19.1754 90.0321 23.9407C71.9375 34.2665 93.5097 63.2939 93.5097 63.2939L73.7636 87.1918" fill="#FCBDA4"/>
<path d="M101.911 105.261L114.18 85.2568C114.18 85.2568 136.843 102.789 143.69 103.482C143.69 103.482 169.877 74.4655 175.442 51.9704L128.846 13.0917L105.981 40.0102C107.553 33.8968 98.3827 19.1754 90.0321 23.9407C71.9375 34.2665 93.5097 63.2939 93.5097 63.2939L73.7636 87.1918" fill="url(#paint2_linear_290_392)" fill-opacity="0.2"/>
<path d="M106.627 42.9012C106.126 33.1652 101.09 27.2677 99.6282 25.7511C103.668 14.9998 117.087 -10.8955 148.948 4.43967C186.984 22.7481 175.442 51.9704 175.442 51.9704L130.679 21.9101L115.039 45.8265L106.627 42.9012V42.9012Z" fill="#563A2B"/>
<path d="M106.627 42.9012C106.126 33.1652 101.09 27.2677 99.6282 25.7511C103.668 14.9998 117.087 -10.8955 148.948 4.43967C186.984 22.7481 175.442 51.9704 175.442 51.9704L130.679 21.9101L115.039 45.8265L106.627 42.9012V42.9012Z" fill="url(#paint3_linear_290_392)" fill-opacity="0.2"/>
<path opacity="0.402158" fill-rule="evenodd" clip-rule="evenodd" d="M114.18 85.2566L100.317 71.2661L109.285 92.5713L114.18 85.2566Z" fill="black"/>
<path fill-rule="evenodd" clip-rule="evenodd" d="M148.457 61.8693L145.14 79.1027L138.408 74.8214L148.457 61.8693Z" fill="#C58268"/>
<path fill-rule="evenodd" clip-rule="evenodd" d="M139.58 61.5783C138.715 63.6256 136.352 64.5808 134.302 63.7125C132.251 62.8443 131.291 60.4807 132.156 58.4344C133.021 56.3871 135.384 55.4318 137.435 56.2996C139.485 57.1684 140.445 59.531 139.58 61.5783" fill="white"/>
<path fill-rule="evenodd" clip-rule="evenodd" d="M157.1 73.0353C156.235 75.0826 153.871 76.0379 151.822 75.1695C149.771 74.3013 148.81 71.9377 149.675 69.8914C150.54 67.8441 152.904 66.8889 154.954 67.7566C157.004 68.6254 157.965 70.988 157.1 73.0353" fill="white"/>
<path d="M128.423 79.7527C137.524 79.271 140.856 80.7428 141.488 88.5909L128.423 79.7527Z" stroke="#942626" stroke-width="2"/>
</g>
<ellipse cx="136" cy="61.5" rx="3" ry="2.5" fill="#0D0B6D"/>
<ellipse cx="154" cy="72.5" rx="3" ry="2.5" fill="#0D0B6D"/>
<path d="M130 48.5L139.5 47" stroke="black"/>
<path d="M158.407 54.5447L164.769 61.7582" stroke="black"/>
<path d="M108.5 92L106 83.5H112L114.5 85.5L112 89L108.5 92Z" fill="#977162"/>
<defs>
<linearGradient id="paint0_linear_290_392" x1="125.5" y1="111.5" x2="45.5" y2="156" gradientUnits="userSpaceOnUse">
<stop stop-color="#9ECBF7"/>
<stop offset="1" stop-color="#C6DFF7"/>
</linearGradient>
<linearGradient id="paint1_linear_290_392" x1="149" y1="89" x2="108" y2="136" gradientUnits="userSpaceOnUse">
<stop stop-color="#736161"/>
<stop offset="1" stop-color="#736161" stop-opacity="0"/>
</linearGradient>
<linearGradient id="paint2_linear_290_392" x1="162" y1="72" x2="135.5" y2="66" gradientUnits="userSpaceOnUse">
<stop stop-color="#736161"/>
<stop offset="1" stop-color="#736161" stop-opacity="0"/>
</linearGradient>
<linearGradient id="paint3_linear_290_392" x1="154" y1="26.5" x2="124" y2="16" gradientUnits="userSpaceOnUse">
<stop/>
<stop offset="1" stop-opacity="0"/>
</linearGradient>
</defs>
</svg>
