<svg width="420" height="544" viewBox="0 0 420 544" fill="none" xmlns="http://www.w3.org/2000/svg">
<mask id="mask0_323_1488" style="mask-type:alpha" maskUnits="userSpaceOnUse" x="188" y="22" width="100" height="100">
<path d="M207.311 82.6825L188.991 105.582L225.248 107.108L226.775 103.673C237.648 110.595 244.002 114.451 255.78 121.229C270.63 104.962 285.442 76.9577 285.931 71.6146C286.419 66.2715 288.589 64.7238 285.167 51.0055C281.746 37.2871 257.307 21.9999 245.857 22C234.408 22.0001 234.617 22.4544 227.92 26.5798C220.078 33.4593 217.242 37.9398 213.417 46.4257C210.832 45.1543 209.477 44.7066 207.311 44.5174C199.876 46.4629 197.319 51.6362 197.769 62.0733C200.504 71.0656 202.856 75.3279 207.311 82.6825Z" fill="#D9D9D9"/>
</mask>
<g mask="url(#mask0_323_1488)">
<path d="M215.52 123.004L227.293 103.808C227.293 103.808 249.039 120.632 255.61 121.297C255.61 121.297 280.738 93.4536 286.077 71.8683L241.366 34.5622L219.426 60.3919C220.934 54.5258 212.135 40.3998 204.122 44.9724C186.759 54.8805 207.459 82.7338 207.459 82.7338L188.512 105.665" fill="#FCBDA4"/>
<path d="M215.52 123.004L227.293 103.808C227.293 103.808 249.039 120.632 255.61 121.297C255.61 121.297 280.738 93.4536 286.077 71.8683L241.366 34.5622L219.426 60.3919C220.934 54.5258 212.135 40.3998 204.122 44.9724C186.759 54.8805 207.459 82.7338 207.459 82.7338L188.512 105.665" fill="url(#paint0_linear_323_1488)" fill-opacity="0.2"/>
<path d="M220.046 63.166C219.565 53.8239 214.733 48.1649 213.33 46.7096C217.206 36.3932 230.083 11.5453 260.655 26.2602C297.153 43.8281 286.077 71.8684 286.077 71.8684L243.125 43.024L228.118 65.973L220.046 63.166V63.166Z" fill="#563A2B"/>
<path d="M220.046 63.166C219.565 53.8239 214.733 48.1649 213.33 46.7096C217.206 36.3932 230.083 11.5453 260.655 26.2602C297.153 43.8281 286.077 71.8684 286.077 71.8684L243.125 43.024L228.118 65.973L220.046 63.166V63.166Z" fill="url(#paint1_linear_323_1488)" fill-opacity="0.2"/>
<path opacity="0.402158" fill-rule="evenodd" clip-rule="evenodd" d="M227.293 103.808L213.991 90.3835L222.597 110.827L227.293 103.808Z" fill="black"/>
<path fill-rule="evenodd" clip-rule="evenodd" d="M260.184 81.3669L257.001 97.9033L250.541 93.7951L260.184 81.3669Z" fill="#C58268"/>
<path d="M253.497 107.008C251.358 99.552 247.753 98.5046 240.96 98.5269L245.832 105.001L253.497 107.008Z" stroke="#942626" stroke-width="1.91911"/>
</g>
<path d="M242.473 68.5385L251.589 67.0991" stroke="black" stroke-width="0.959553"/>
<path d="M269.732 74.3386L275.836 81.2604" stroke="black" stroke-width="0.959553"/>
<path d="M221.843 110.279L219.444 102.123H225.201L227.6 104.042L225.201 107.4L221.843 110.279Z" fill="#977162"/>
<circle cx="248.71" cy="81.0125" r="3.35844" fill="white"/>
<ellipse cx="248.71" cy="82.4518" rx="2.39888" ry="1.91911" fill="#0D0B6D"/>
<circle cx="265.982" cy="90.6079" r="3.35844" fill="white"/>
<ellipse cx="265.982" cy="92.0473" rx="2.39888" ry="1.91911" fill="#0D0B6D"/>
<defs>
<linearGradient id="paint0_linear_323_1488" x1="273.179" y1="91.0878" x2="247.751" y2="85.3305" gradientUnits="userSpaceOnUse">
<stop stop-color="#736161"/>
<stop offset="1" stop-color="#736161" stop-opacity="0"/>
</linearGradient>
<linearGradient id="paint1_linear_323_1488" x1="265.503" y1="47.4282" x2="236.716" y2="37.3529" gradientUnits="userSpaceOnUse">
<stop/>
<stop offset="1" stop-opacity="0"/>
</linearGradient>
</defs>
</svg>
