<svg width="420" height="544" viewBox="0 0 420 544" fill="none" xmlns="http://www.w3.org/2000/svg">
<mask id="mask0_323_1413" style="mask-type:alpha" maskUnits="userSpaceOnUse" x="197" y="0" width="103" height="104">
<path d="M216.091 63.2403L197 87.1046L234.785 88.6956L236.376 85.1159C247.708 92.3299 254.329 96.348 266.604 103.412C282.08 86.4585 297.516 57.2743 298.025 51.7059C298.535 46.1376 300.796 44.5247 297.23 30.2281C293.664 15.9315 268.195 -0.000148583 256.263 0C244.331 0.000148585 244.549 0.473505 237.569 4.77286C229.397 11.9424 226.441 16.6116 222.455 25.4552C219.761 24.1303 218.349 23.6638 216.091 23.4665C208.344 25.494 205.679 30.8855 206.148 41.7625C208.998 51.1338 211.449 55.5758 216.091 63.2403Z" fill="#D9D9D9"/>
</mask>
<g mask="url(#mask0_323_1413)">
<path d="M224.646 105.261L236.916 85.2563C236.916 85.2563 259.579 102.789 266.426 103.482C266.426 103.482 292.613 74.465 298.178 51.9699L251.582 13.0912L228.717 40.0097C230.289 33.8963 221.119 19.1749 212.768 23.9402C194.673 34.266 216.246 63.2934 216.246 63.2934L196.499 87.1913" fill="#FCBDA4"/>
<path d="M224.646 105.261L236.916 85.2563C236.916 85.2563 259.579 102.789 266.426 103.482C266.426 103.482 292.613 74.465 298.178 51.9699L251.582 13.0912L228.717 40.0097C230.289 33.8963 221.119 19.1749 212.768 23.9402C194.673 34.266 216.246 63.2934 216.246 63.2934L196.499 87.1913" fill="url(#paint0_linear_323_1413)" fill-opacity="0.2"/>
<path d="M229.363 42.9009C228.862 33.165 223.826 27.2674 222.364 25.7508C226.403 14.9996 239.823 -10.8957 271.683 4.43943C309.72 22.7478 298.177 51.9701 298.177 51.9701L253.415 21.9099L237.775 45.8263L229.363 42.9009V42.9009Z" fill="#563A2B"/>
<path d="M229.363 42.9009C228.862 33.165 223.826 27.2674 222.364 25.7508C226.403 14.9996 239.823 -10.8957 271.683 4.43943C309.72 22.7478 298.177 51.9701 298.177 51.9701L253.415 21.9099L237.775 45.8263L229.363 42.9009V42.9009Z" fill="url(#paint1_linear_323_1413)" fill-opacity="0.2"/>
<path opacity="0.402158" fill-rule="evenodd" clip-rule="evenodd" d="M236.916 85.2561L223.053 71.2656L232.022 92.5708L236.916 85.2561Z" fill="black"/>
<path fill-rule="evenodd" clip-rule="evenodd" d="M271.193 61.8688L267.876 79.1022L261.144 74.8209L271.193 61.8688Z" fill="#C58268"/>
<path d="M264.224 88.5906C261.996 80.8208 258.238 79.7292 251.159 79.7524L256.236 86.4998L264.224 88.5906Z" stroke="#942626" stroke-width="2"/>
</g>
<path d="M252.736 48.5L262.236 47" stroke="black"/>
<path d="M281.143 54.5447L287.505 61.7582" stroke="black"/>
<path d="M231.236 92L228.736 83.5H234.736L237.236 85.5L234.736 89L231.236 92Z" fill="#977162"/>
<circle cx="259.236" cy="61.5" r="3.5" fill="white"/>
<ellipse cx="259.236" cy="63" rx="2.5" ry="2" fill="#0D0B6D"/>
<circle cx="277.236" cy="71.5" r="3.5" fill="white"/>
<ellipse cx="277.236" cy="73" rx="2.5" ry="2" fill="#0D0B6D"/>
<defs>
<linearGradient id="paint0_linear_323_1413" x1="284.736" y1="71.9995" x2="258.236" y2="65.9995" gradientUnits="userSpaceOnUse">
<stop stop-color="#736161"/>
<stop offset="1" stop-color="#736161" stop-opacity="0"/>
</linearGradient>
<linearGradient id="paint1_linear_323_1413" x1="276.736" y1="26.4998" x2="246.736" y2="15.9998" gradientUnits="userSpaceOnUse">
<stop/>
<stop offset="1" stop-opacity="0"/>
</linearGradient>
</defs>
</svg>
