<svg width="420" height="544" viewBox="0 0 420 544" fill="none" xmlns="http://www.w3.org/2000/svg">
<path d="M147.731 112.198C157.127 106.994 165.559 102.503 178.916 103.082L196.188 119.395H210.102L218.381 112.677L225.934 106.92C228.543 108.143 230.781 109.701 232.651 111.54L258.079 103.562L267.675 122.753L242.727 143.383V195.199L250.058 251.742L146.291 249.414L149.17 226.865L150.829 195.257V150.1L126.141 151.54L118.464 117.955L147.731 112.198Z" fill="url(#paint0_linear_323_1488)"/>
<path d="M147.731 112.198C157.127 106.994 165.559 102.503 178.916 103.082L196.188 119.395H210.102L218.381 112.677L225.934 106.92C228.543 108.143 230.781 109.701 232.651 111.54L258.079 103.562L267.675 122.753L242.727 143.383V195.199L250.058 251.742L146.291 249.414L149.17 226.865L150.829 195.257V150.1L126.141 151.54L118.464 117.955L147.731 112.198Z" fill="url(#paint1_linear_323_1488)" fill-opacity="0.2"/>
<path d="M196.188 119.874L178.916 103.562L214.9 105.001L224.975 107.88L210.102 119.395L196.188 119.874Z" fill="#FCBDA4"/>
<mask id="mask0_323_1488" style="mask-type:alpha" maskUnits="userSpaceOnUse" x="189" y="22" width="99" height="100">
<path d="M207.564 82.6825L189.245 105.582L225.502 107.108L227.028 103.673C237.902 110.595 244.255 114.451 256.034 121.229C270.883 104.962 285.696 76.9577 286.184 71.6146C286.673 66.2715 288.842 64.7238 285.421 51.0055C281.999 37.2871 257.56 21.9999 246.111 22C234.661 22.0001 234.871 22.4544 228.173 26.5798C220.332 33.4593 217.495 37.9398 213.671 46.4257C211.086 45.1543 209.73 44.7066 207.564 44.5174C200.13 46.4629 197.573 51.6362 198.023 62.0733C200.757 71.0656 203.109 75.3279 207.564 82.6825Z" fill="#D9D9D9"/>
</mask>
<g mask="url(#mask0_323_1488)">
<path d="M215.773 123.004L227.546 103.808C227.546 103.808 249.292 120.632 255.863 121.297C255.863 121.297 280.991 93.4536 286.33 71.8683L241.619 34.5622L219.679 60.3919C221.187 54.5258 212.388 40.3998 204.375 44.9724C187.012 54.8805 207.712 82.7338 207.712 82.7338L188.765 105.665" fill="#FCBDA4"/>
<path d="M215.773 123.004L227.546 103.808C227.546 103.808 249.292 120.632 255.863 121.297C255.863 121.297 280.991 93.4536 286.33 71.8683L241.619 34.5622L219.679 60.3919C221.187 54.5258 212.388 40.3998 204.375 44.9724C187.012 54.8805 207.712 82.7338 207.712 82.7338L188.765 105.665" fill="url(#paint2_linear_323_1488)" fill-opacity="0.2"/>
<path d="M220.299 63.166C219.818 53.8239 214.986 48.1649 213.583 46.7096C217.459 36.3932 230.336 11.5453 260.908 26.2602C297.406 43.8281 286.33 71.8684 286.33 71.8684L243.378 43.024L228.371 65.973L220.299 63.166V63.166Z" fill="#563A2B"/>
<path d="M220.299 63.166C219.818 53.8239 214.986 48.1649 213.583 46.7096C217.459 36.3932 230.336 11.5453 260.908 26.2602C297.406 43.8281 286.33 71.8684 286.33 71.8684L243.378 43.024L228.371 65.973L220.299 63.166V63.166Z" fill="url(#paint3_linear_323_1488)" fill-opacity="0.2"/>
<path opacity="0.402158" fill-rule="evenodd" clip-rule="evenodd" d="M227.547 103.808L214.244 90.3835L222.85 110.827L227.547 103.808Z" fill="black"/>
<path fill-rule="evenodd" clip-rule="evenodd" d="M260.437 81.3669L257.255 97.9033L250.795 93.7951L260.437 81.3669Z" fill="#C58268"/>
<path d="M247.044 108.36L246.565 101.163L249.443 103.082L251.842 105.481L250.403 109.319L247.044 108.36Z" fill="#FF7777"/>
<path d="M241.213 98.5269C246.657 100.001 250.032 101.302 253.75 107.008" stroke="#942626" stroke-width="1.91911"/>
</g>
<path d="M247.973 77.2566L249.954 83.3292" stroke="#0D0B6D" stroke-width="0.859302"/>
<path d="M246.107 81.5229L251.82 79.0627" stroke="#0D0B6D" stroke-width="0.859302"/>
<path d="M264.927 87.4172L266.908 93.4899" stroke="#0D0B6D" stroke-width="0.859302"/>
<path d="M263.061 91.6836L268.774 89.2233" stroke="#0D0B6D" stroke-width="0.859302"/>
<path d="M242.727 68.5385L251.842 67.0991" stroke="black" stroke-width="0.959553"/>
<path d="M269.985 74.3386L276.089 81.2604" stroke="black" stroke-width="0.959553"/>
<path d="M222.096 110.279L219.697 102.123H225.455L227.853 104.042L225.455 107.4L222.096 110.279Z" fill="#977162"/>
<mask id="mask1_323_1488" style="mask-type:alpha" maskUnits="userSpaceOnUse" x="188" y="22" width="100" height="100">
<path d="M207.311 82.6825L188.991 105.582L225.248 107.108L226.775 103.673C237.648 110.595 244.002 114.451 255.78 121.229C270.63 104.962 285.442 76.9577 285.931 71.6146C286.419 66.2715 288.589 64.7238 285.167 51.0055C281.746 37.2871 257.307 21.9999 245.857 22C234.408 22.0001 234.617 22.4544 227.92 26.5798C220.078 33.4593 217.242 37.9398 213.417 46.4257C210.832 45.1543 209.477 44.7066 207.311 44.5174C199.876 46.4629 197.319 51.6362 197.769 62.0733C200.504 71.0656 202.856 75.3279 207.311 82.6825Z" fill="#D9D9D9"/>
</mask>
<g mask="url(#mask1_323_1488)">
<path d="M215.52 123.004L227.293 103.808C227.293 103.808 249.039 120.632 255.61 121.297C255.61 121.297 280.738 93.4536 286.077 71.8683L241.366 34.5622L219.426 60.3919C220.934 54.5258 212.135 40.3998 204.122 44.9724C186.759 54.8805 207.459 82.7338 207.459 82.7338L188.512 105.665" fill="#FCBDA4"/>
<path d="M215.52 123.004L227.293 103.808C227.293 103.808 249.039 120.632 255.61 121.297C255.61 121.297 280.738 93.4536 286.077 71.8683L241.366 34.5622L219.426 60.3919C220.934 54.5258 212.135 40.3998 204.122 44.9724C186.759 54.8805 207.459 82.7338 207.459 82.7338L188.512 105.665" fill="url(#paint4_linear_323_1488)" fill-opacity="0.2"/>
<path d="M220.046 63.166C219.565 53.8239 214.733 48.1649 213.33 46.7096C217.206 36.3932 230.083 11.5453 260.655 26.2602C297.153 43.8281 286.077 71.8684 286.077 71.8684L243.125 43.024L228.118 65.973L220.046 63.166V63.166Z" fill="#563A2B"/>
<path d="M220.046 63.166C219.565 53.8239 214.733 48.1649 213.33 46.7096C217.206 36.3932 230.083 11.5453 260.655 26.2602C297.153 43.8281 286.077 71.8684 286.077 71.8684L243.125 43.024L228.118 65.973L220.046 63.166V63.166Z" fill="url(#paint5_linear_323_1488)" fill-opacity="0.2"/>
<path opacity="0.402158" fill-rule="evenodd" clip-rule="evenodd" d="M227.293 103.808L213.991 90.3835L222.597 110.827L227.293 103.808Z" fill="black"/>
<path fill-rule="evenodd" clip-rule="evenodd" d="M260.184 81.3669L257.001 97.9033L250.541 93.7951L260.184 81.3669Z" fill="#C58268"/>
<path d="M253.497 107.008C251.358 99.552 247.753 98.5046 240.96 98.5269L245.832 105.001L253.497 107.008Z" stroke="#942626" stroke-width="1.91911"/>
</g>
<path d="M242.473 68.5385L251.589 67.0991" stroke="black" stroke-width="0.959553"/>
<path d="M269.732 74.3386L275.836 81.2604" stroke="black" stroke-width="0.959553"/>
<path d="M221.843 110.279L219.444 102.123H225.201L227.6 104.042L225.201 107.4L221.843 110.279Z" fill="#977162"/>
<circle cx="248.71" cy="81.0125" r="3.35844" fill="white"/>
<ellipse cx="248.71" cy="82.4518" rx="2.39888" ry="1.91911" fill="#0D0B6D"/>
<circle cx="265.982" cy="90.6079" r="3.35844" fill="white"/>
<ellipse cx="265.982" cy="92.0473" rx="2.39888" ry="1.91911" fill="#0D0B6D"/>
<defs>
<linearGradient id="paint0_linear_323_1488" x1="238.409" y1="128.99" x2="161.644" y2="171.69" gradientUnits="userSpaceOnUse">
<stop stop-color="#9ECBF7"/>
<stop offset="1" stop-color="#C6DFF7"/>
</linearGradient>
<linearGradient id="paint1_linear_323_1488" x1="260.958" y1="107.4" x2="221.616" y2="152.499" gradientUnits="userSpaceOnUse">
<stop stop-color="#736161"/>
<stop offset="1" stop-color="#736161" stop-opacity="0"/>
</linearGradient>
<linearGradient id="paint2_linear_323_1488" x1="273.432" y1="91.0878" x2="248.004" y2="85.3305" gradientUnits="userSpaceOnUse">
<stop stop-color="#736161"/>
<stop offset="1" stop-color="#736161" stop-opacity="0"/>
</linearGradient>
<linearGradient id="paint3_linear_323_1488" x1="265.756" y1="47.4282" x2="236.969" y2="37.3529" gradientUnits="userSpaceOnUse">
<stop/>
<stop offset="1" stop-opacity="0"/>
</linearGradient>
<linearGradient id="paint4_linear_323_1488" x1="273.179" y1="91.0878" x2="247.751" y2="85.3305" gradientUnits="userSpaceOnUse">
<stop stop-color="#736161"/>
<stop offset="1" stop-color="#736161" stop-opacity="0"/>
</linearGradient>
<linearGradient id="paint5_linear_323_1488" x1="265.503" y1="47.4282" x2="236.716" y2="37.3529" gradientUnits="userSpaceOnUse">
<stop/>
<stop offset="1" stop-opacity="0"/>
</linearGradient>
</defs>
</svg>
