<svg width="421" height="544" viewBox="0 0 421 544" fill="none" xmlns="http://www.w3.org/2000/svg">
<path d="M43.4435 95.2168C46.752 97.9103 49.3429 100.515 49.3429 100.515L97.7719 110.569L135.651 101.778L158.885 118.122L107.101 133.686L45.8625 117.321C39.2611 117.308 31.7067 118.777 26.7491 117.592C22.6466 116.612 18.6739 115.204 13.9589 111.759C10.9294 109.544 8.43168 107.448 8.75175 106.945C9.55761 105.677 11.3025 106.252 11.3025 106.252L14.2743 108.066L17.2988 109.498C17.2988 109.498 5.21214 99.5663 5.43949 99.1795C6.24253 97.8106 8.75697 98.4594 8.75697 98.4594C8.75697 98.4594 4.52865 95.1879 4.9824 94.4784C6.13772 92.6742 8.28586 93.6651 8.28586 93.6651C8.28586 93.6651 7.9818 92.8528 8.28848 92.4251C9.52752 90.6999 12.9907 92.2022 14.6827 92.8365C14.6827 92.8365 20.065 95.6828 21.871 96.156C31.9392 98.7978 34.1389 97.7758 35.524 97.4824C34.8925 94.876 31.7162 93.9307 30.0041 91.4753C27.8095 88.3299 27.1272 81.5302 32.7047 87.2185C37.6186 92.2302 40.1349 92.5239 43.4435 95.2168Z" fill="#FCBDA4"/>
<path d="M155 94C164.792 88.577 173.579 83.8966 187.5 84.4998L205.5 101.5H220L228.629 94.4996L236.5 88.4998C239.219 89.7744 241.551 91.3978 243.5 93.3142L270 84.9999L280 105L254 126.5V180.5L261.641 239.426L153.5 237L156.5 213.5L158.229 180.56V133.5L132.5 135L124.5 99.9999L155 94Z" fill="url(#paint0_linear_323_1415)"/>
<path d="M155 94C164.792 88.577 173.579 83.8966 187.5 84.4998L205.5 101.5H220L228.629 94.4996L236.5 88.4998C239.219 89.7744 241.551 91.3978 243.5 93.3142L270 84.9999L280 105L254 126.5V180.5L261.641 239.426L153.5 237L156.5 213.5L158.229 180.56V133.5L132.5 135L124.5 99.9999L155 94Z" fill="url(#paint1_linear_323_1415)" fill-opacity="0.2"/>
<path d="M205.5 102L187.5 85L225 86.5L235.5 89.5L220 101.5L205.5 102Z" fill="#FCBDA4"/>
<mask id="mask0_323_1415" style="mask-type:alpha" maskUnits="userSpaceOnUse" x="198" y="0" width="103" height="104">
<path d="M217.355 63.2403L198.264 87.1046L236.049 88.6956L237.64 85.1159C248.972 92.3299 255.593 96.348 267.868 103.412C283.344 86.4585 298.78 57.2743 299.289 51.7059C299.799 46.1376 302.06 44.5247 298.494 30.2281C294.928 15.9315 269.459 -0.000148583 257.527 0C245.595 0.000148585 245.813 0.473505 238.833 4.77286C230.661 11.9424 227.705 16.6116 223.719 25.4552C221.025 24.1303 219.613 23.6638 217.355 23.4665C209.607 25.494 206.943 30.8855 207.412 41.7625C210.262 51.1338 212.712 55.5758 217.355 63.2403Z" fill="#D9D9D9"/>
</mask>
<g mask="url(#mask0_323_1415)">
<path d="M225.91 105.261L238.18 85.2563C238.18 85.2563 260.842 102.789 267.69 103.482C267.69 103.482 293.877 74.465 299.442 51.9699L252.846 13.0912L229.981 40.0097C231.552 33.8963 222.382 19.1749 214.032 23.9402C195.937 34.266 217.509 63.2934 217.509 63.2934L197.763 87.1913" fill="#FCBDA4"/>
<path d="M225.91 105.261L238.18 85.2563C238.18 85.2563 260.842 102.789 267.69 103.482C267.69 103.482 293.877 74.465 299.442 51.9699L252.846 13.0912L229.981 40.0097C231.552 33.8963 222.382 19.1749 214.032 23.9402C195.937 34.266 217.509 63.2934 217.509 63.2934L197.763 87.1913" fill="url(#paint2_linear_323_1415)" fill-opacity="0.2"/>
<path d="M230.627 42.9009C230.125 33.165 225.09 27.2674 223.628 25.7508C227.667 14.9996 241.087 -10.8957 272.947 4.43943C310.984 22.7478 299.441 51.9701 299.441 51.9701L254.679 21.9099L239.039 45.8263L230.627 42.9009V42.9009Z" fill="#563A2B"/>
<path d="M230.627 42.9009C230.125 33.165 225.09 27.2674 223.628 25.7508C227.667 14.9996 241.087 -10.8957 272.947 4.43943C310.984 22.7478 299.441 51.9701 299.441 51.9701L254.679 21.9099L239.039 45.8263L230.627 42.9009V42.9009Z" fill="url(#paint3_linear_323_1415)" fill-opacity="0.2"/>
<path opacity="0.402158" fill-rule="evenodd" clip-rule="evenodd" d="M238.18 85.2561L224.317 71.2656L233.285 92.5708L238.18 85.2561Z" fill="black"/>
<path fill-rule="evenodd" clip-rule="evenodd" d="M272.457 61.8688L269.14 79.1022L262.408 74.8209L272.457 61.8688Z" fill="#C58268"/>
<path d="M258.5 90L258 82.5L261 84.5L263.5 87L262 91L258.5 90Z" fill="#FF7777"/>
<path d="M252.423 79.7524C258.097 81.289 261.614 82.6446 265.488 88.5906" stroke="#942626" stroke-width="2"/>
</g>
<path d="M259.468 57.5859L261.532 63.9146" stroke="#0D0B6D" stroke-width="0.895522"/>
<path d="M257.523 62.0322L263.476 59.4682" stroke="#0D0B6D" stroke-width="0.895522"/>
<path d="M277.136 68.1748L279.201 74.5034" stroke="#0D0B6D" stroke-width="0.895522"/>
<path d="M275.192 72.6211L281.145 70.0571" stroke="#0D0B6D" stroke-width="0.895522"/>
<path d="M254 48.5L263.5 47" stroke="black"/>
<path d="M282.407 54.5447L288.769 61.7582" stroke="black"/>
<path d="M232.5 92L230 83.5H236L238.5 85.5L236 89L232.5 92Z" fill="#977162"/>
<mask id="mask1_323_1415" style="mask-type:alpha" maskUnits="userSpaceOnUse" x="198" y="0" width="103" height="104">
<path d="M217.091 63.2403L198 87.1046L235.785 88.6956L237.376 85.1159C248.708 92.3299 255.329 96.348 267.604 103.412C283.08 86.4585 298.516 57.2743 299.025 51.7059C299.535 46.1376 301.796 44.5247 298.23 30.2281C294.664 15.9315 269.195 -0.000148583 257.263 0C245.331 0.000148585 245.549 0.473505 238.569 4.77286C230.397 11.9424 227.441 16.6116 223.455 25.4552C220.761 24.1303 219.349 23.6638 217.091 23.4665C209.344 25.494 206.679 30.8855 207.148 41.7625C209.998 51.1338 212.449 55.5758 217.091 63.2403Z" fill="#D9D9D9"/>
</mask>
<g mask="url(#mask1_323_1415)">
<path d="M225.646 105.261L237.916 85.2563C237.916 85.2563 260.579 102.789 267.426 103.482C267.426 103.482 293.613 74.465 299.178 51.9699L252.582 13.0912L229.717 40.0097C231.289 33.8963 222.119 19.1749 213.768 23.9402C195.673 34.266 217.246 63.2934 217.246 63.2934L197.499 87.1913" fill="#FCBDA4"/>
<path d="M225.646 105.261L237.916 85.2563C237.916 85.2563 260.579 102.789 267.426 103.482C267.426 103.482 293.613 74.465 299.178 51.9699L252.582 13.0912L229.717 40.0097C231.289 33.8963 222.119 19.1749 213.768 23.9402C195.673 34.266 217.246 63.2934 217.246 63.2934L197.499 87.1913" fill="url(#paint4_linear_323_1415)" fill-opacity="0.2"/>
<path d="M230.363 42.9009C229.862 33.165 224.826 27.2674 223.364 25.7508C227.403 14.9996 240.823 -10.8957 272.683 4.43943C310.72 22.7478 299.177 51.9701 299.177 51.9701L254.415 21.9099L238.775 45.8263L230.363 42.9009V42.9009Z" fill="#563A2B"/>
<path d="M230.363 42.9009C229.862 33.165 224.826 27.2674 223.364 25.7508C227.403 14.9996 240.823 -10.8957 272.683 4.43943C310.72 22.7478 299.177 51.9701 299.177 51.9701L254.415 21.9099L238.775 45.8263L230.363 42.9009V42.9009Z" fill="url(#paint5_linear_323_1415)" fill-opacity="0.2"/>
<path opacity="0.402158" fill-rule="evenodd" clip-rule="evenodd" d="M237.916 85.2561L224.053 71.2656L233.022 92.5708L237.916 85.2561Z" fill="black"/>
<path fill-rule="evenodd" clip-rule="evenodd" d="M272.193 61.8688L268.876 79.1022L262.144 74.8209L272.193 61.8688Z" fill="#C58268"/>
<path d="M265.224 88.5906C262.996 80.8208 259.238 79.7292 252.159 79.7524L257.236 86.4998L265.224 88.5906Z" stroke="#942626" stroke-width="2"/>
</g>
<path d="M253.736 48.5L263.236 47" stroke="black"/>
<path d="M282.143 54.5447L288.505 61.7582" stroke="black"/>
<path d="M232.236 92L229.736 83.5H235.736L238.236 85.5L235.736 89L232.236 92Z" fill="#977162"/>
<circle cx="260.236" cy="61.5" r="3.5" fill="white"/>
<ellipse cx="260.236" cy="63" rx="2.5" ry="2" fill="#0D0B6D"/>
<circle cx="278.236" cy="71.5" r="3.5" fill="white"/>
<ellipse cx="278.236" cy="73" rx="2.5" ry="2" fill="#0D0B6D"/>
<defs>
<linearGradient id="paint0_linear_323_1415" x1="249.5" y1="111.5" x2="169.5" y2="156" gradientUnits="userSpaceOnUse">
<stop stop-color="#9ECBF7"/>
<stop offset="1" stop-color="#C6DFF7"/>
</linearGradient>
<linearGradient id="paint1_linear_323_1415" x1="273" y1="89" x2="232" y2="136" gradientUnits="userSpaceOnUse">
<stop stop-color="#736161"/>
<stop offset="1" stop-color="#736161" stop-opacity="0"/>
</linearGradient>
<linearGradient id="paint2_linear_323_1415" x1="286" y1="71.9995" x2="259.5" y2="65.9995" gradientUnits="userSpaceOnUse">
<stop stop-color="#736161"/>
<stop offset="1" stop-color="#736161" stop-opacity="0"/>
</linearGradient>
<linearGradient id="paint3_linear_323_1415" x1="278" y1="26.4998" x2="248" y2="15.9998" gradientUnits="userSpaceOnUse">
<stop/>
<stop offset="1" stop-opacity="0"/>
</linearGradient>
<linearGradient id="paint4_linear_323_1415" x1="285.736" y1="71.9995" x2="259.236" y2="65.9995" gradientUnits="userSpaceOnUse">
<stop stop-color="#736161"/>
<stop offset="1" stop-color="#736161" stop-opacity="0"/>
</linearGradient>
<linearGradient id="paint5_linear_323_1415" x1="277.736" y1="26.4998" x2="247.736" y2="15.9998" gradientUnits="userSpaceOnUse">
<stop/>
<stop offset="1" stop-opacity="0"/>
</linearGradient>
</defs>
</svg>
