<svg width="301" height="240" viewBox="0 0 301 240" fill="none" xmlns="http://www.w3.org/2000/svg">
<path d="M43.4435 95.2168C46.752 97.9103 49.3429 100.515 49.3429 100.515L97.7719 110.569L135.651 101.778L158.885 118.122L107.101 133.686L45.8625 117.321C39.2611 117.308 31.7067 118.777 26.7491 117.592C22.6466 116.612 18.6739 115.204 13.9589 111.759C10.9294 109.544 8.43168 107.448 8.75175 106.945C9.55761 105.677 11.3025 106.252 11.3025 106.252L14.2743 108.066L17.2988 109.498C17.2988 109.498 5.21214 99.5663 5.43949 99.1795C6.24253 97.8106 8.75697 98.4594 8.75697 98.4594C8.75697 98.4594 4.52865 95.1879 4.9824 94.4784C6.13772 92.6742 8.28586 93.6651 8.28586 93.6651C8.28586 93.6651 7.9818 92.8528 8.28848 92.4251C9.52752 90.6999 12.9907 92.2022 14.6827 92.8365C14.6827 92.8365 20.065 95.6828 21.871 96.156C31.9392 98.7978 34.1389 97.7758 35.524 97.4824C34.8925 94.876 31.7162 93.9307 30.0041 91.4753C27.8095 88.3299 27.1272 81.5302 32.7047 87.2185C37.6186 92.2302 40.1349 92.5239 43.4435 95.2168Z" fill="#FCBDA4"/>
<path d="M155 94C164.792 88.577 173.579 83.8966 187.5 84.4998L205.5 101.5H220L228.629 94.4996L236.5 88.4998C239.219 89.7744 241.551 91.3978 243.5 93.3142L270 84.9999L280 105L254 126.5V180.5L261.641 239.426L153.5 237L156.5 213.5L158.229 180.56V133.5L132.5 135L124.5 99.9999L155 94Z" fill="url(#paint0_linear_290_393)"/>
<path d="M155 94C164.792 88.577 173.579 83.8966 187.5 84.4998L205.5 101.5H220L228.629 94.4996L236.5 88.4998C239.219 89.7744 241.551 91.3978 243.5 93.3142L270 84.9999L280 105L254 126.5V180.5L261.641 239.426L153.5 237L156.5 213.5L158.229 180.56V133.5L132.5 135L124.5 99.9999L155 94Z" fill="url(#paint1_linear_290_393)" fill-opacity="0.2"/>
<path d="M205.5 102L187.5 85L225 86.5L235.5 89.5L220 101.5L205.5 102Z" fill="#FCBDA4"/>
<mask id="mask0_290_393" style="mask-type:alpha" maskUnits="userSpaceOnUse" x="198" y="0" width="103" height="104">
<path d="M217.355 63.2403L198.264 87.1046L236.049 88.6956L237.64 85.1159C248.972 92.3299 255.593 96.348 267.868 103.412C283.344 86.4585 298.78 57.2743 299.289 51.7059C299.799 46.1376 302.06 44.5247 298.494 30.2281C294.928 15.9315 269.459 -0.000148583 257.527 0C245.595 0.000148585 245.813 0.473505 238.833 4.77286C230.661 11.9424 227.705 16.6116 223.719 25.4552C221.025 24.1303 219.613 23.6638 217.355 23.4665C209.607 25.494 206.943 30.8855 207.412 41.7625C210.262 51.1338 212.712 55.5758 217.355 63.2403Z" fill="#D9D9D9"/>
</mask>
<g mask="url(#mask0_290_393)">
<path d="M225.911 105.261L238.18 85.2568C238.18 85.2568 260.843 102.789 267.69 103.482C267.69 103.482 293.877 74.4655 299.442 51.9704L252.846 13.0917L229.981 40.0102C231.553 33.8968 222.383 19.1754 214.032 23.9407C195.937 34.2665 217.51 63.2939 217.51 63.2939L197.764 87.1918" fill="#FCBDA4"/>
<path d="M225.911 105.261L238.18 85.2568C238.18 85.2568 260.843 102.789 267.69 103.482C267.69 103.482 293.877 74.4655 299.442 51.9704L252.846 13.0917L229.981 40.0102C231.553 33.8968 222.383 19.1754 214.032 23.9407C195.937 34.2665 217.51 63.2939 217.51 63.2939L197.764 87.1918" fill="url(#paint2_linear_290_393)" fill-opacity="0.2"/>
<path d="M230.627 42.9012C230.126 33.1652 225.09 27.2677 223.628 25.7511C227.668 14.9998 241.087 -10.8955 272.948 4.43967C310.984 22.7481 299.442 51.9704 299.442 51.9704L254.679 21.9101L239.039 45.8265L230.627 42.9012V42.9012Z" fill="#563A2B"/>
<path d="M230.627 42.9012C230.126 33.1652 225.09 27.2677 223.628 25.7511C227.668 14.9998 241.087 -10.8955 272.948 4.43967C310.984 22.7481 299.442 51.9704 299.442 51.9704L254.679 21.9101L239.039 45.8265L230.627 42.9012V42.9012Z" fill="url(#paint3_linear_290_393)" fill-opacity="0.2"/>
<path opacity="0.402158" fill-rule="evenodd" clip-rule="evenodd" d="M238.18 85.2566L224.317 71.2661L233.285 92.5713L238.18 85.2566Z" fill="black"/>
<path fill-rule="evenodd" clip-rule="evenodd" d="M272.457 61.8693L269.14 79.1027L262.408 74.8214L272.457 61.8693Z" fill="#C58268"/>
<path fill-rule="evenodd" clip-rule="evenodd" d="M263.58 61.5783C262.715 63.6256 260.352 64.5808 258.302 63.7125C256.251 62.8443 255.291 60.4807 256.156 58.4344C257.021 56.3871 259.384 55.4318 261.435 56.2996C263.485 57.1684 264.445 59.531 263.58 61.5783" fill="white"/>
<path fill-rule="evenodd" clip-rule="evenodd" d="M281.1 73.0353C280.235 75.0826 277.871 76.0379 275.822 75.1695C273.771 74.3013 272.81 71.9377 273.675 69.8914C274.54 67.8441 276.904 66.8889 278.954 67.7566C281.004 68.6254 281.965 70.988 281.1 73.0353" fill="white"/>
<path d="M252.423 79.7527C261.524 79.271 264.856 80.7428 265.488 88.5909L252.423 79.7527Z" stroke="#942626" stroke-width="2"/>
</g>
<ellipse cx="260" cy="61.5" rx="3" ry="2.5" fill="#0D0B6D"/>
<ellipse cx="278" cy="72.5" rx="3" ry="2.5" fill="#0D0B6D"/>
<path d="M254 48.5L263.5 47" stroke="black"/>
<path d="M282.407 54.5447L288.769 61.7582" stroke="black"/>
<path d="M232.5 92L230 83.5H236L238.5 85.5L236 89L232.5 92Z" fill="#977162"/>
<defs>
<linearGradient id="paint0_linear_290_393" x1="249.5" y1="111.5" x2="169.5" y2="156" gradientUnits="userSpaceOnUse">
<stop stop-color="#9ECBF7"/>
<stop offset="1" stop-color="#C6DFF7"/>
</linearGradient>
<linearGradient id="paint1_linear_290_393" x1="273" y1="89" x2="232" y2="136" gradientUnits="userSpaceOnUse">
<stop stop-color="#736161"/>
<stop offset="1" stop-color="#736161" stop-opacity="0"/>
</linearGradient>
<linearGradient id="paint2_linear_290_393" x1="286" y1="72" x2="259.5" y2="66" gradientUnits="userSpaceOnUse">
<stop stop-color="#736161"/>
<stop offset="1" stop-color="#736161" stop-opacity="0"/>
</linearGradient>
<linearGradient id="paint3_linear_290_393" x1="278" y1="26.5" x2="248" y2="16" gradientUnits="userSpaceOnUse">
<stop/>
<stop offset="1" stop-opacity="0"/>
</linearGradient>
</defs>
</svg>
