<svg width="421" height="544" viewBox="0 0 421 544" fill="none" xmlns="http://www.w3.org/2000/svg">
<path d="M330.906 460.222L347.34 455.462L352.719 465.576L340 474.064L330.906 460.222Z" fill="#CF3E83"/>
<path d="M351.406 461.832L357.913 473.996C357.913 473.996 386.622 455.075 403.621 456.841L355.64 498.817L334.66 466.014L351.406 461.832Z" fill="#0D0B6D"/>
<path d="M323.732 469.59C265.344 367.611 225.153 310.914 189.081 209.158L244.475 198.819L355.718 454.319L323.732 469.59Z" fill="#2C292E"/>
<path d="M119.514 424.495L126.447 440.137L117.151 446.832L107.025 435.374L119.514 424.495Z" fill="#CF3E83"/>
<path d="M120.684 445.025L109.509 453.114C109.509 453.114 132.128 479.008 132.671 496.09L84.607 454.208L114.282 428.996L120.684 445.025Z" fill="#0D0B6D"/>
<path d="M160.75 196.884L217.092 197.927L244.5 392.499L212.471 407.835L126.5 448.999L109.5 425.499L199.5 373.999C178.551 312.263 170.869 269.924 160.75 196.884Z" fill="#302B34"/>
<path d="M342.156 15.254C340.57 17.2515 332.398 35.3324 332.398 35.3324L294.369 63.1229L249.468 91.813L267.885 105.779L308.54 78.661L342.076 44.5532C353.331 44.4971 364.939 26.4058 364.939 26.4058C364.939 26.4058 364.396 30.9771 366.593 30.865C367.571 30.8155 374.571 28.5822 369.009 14.8218C368.419 13.3608 364.035 11.1593 364.035 11.1593C364.035 11.1593 369.844 11.6064 369.052 7.33098C369.052 7.33098 357.209 5.12341 355.147 5.92316C353.083 6.72398 343.742 13.2576 342.156 15.254Z" fill="#FCBDA4"/>
<path d="M342.156 15.254C340.57 17.2515 332.398 35.3324 332.398 35.3324L294.369 63.1229L249.468 91.813L267.885 105.779L308.54 78.661L342.076 44.5532C353.331 44.4971 364.939 26.4058 364.939 26.4058C364.939 26.4058 364.396 30.9771 366.593 30.865C367.571 30.8155 374.571 28.5822 369.009 14.8218C368.419 13.3608 364.035 11.1593 364.035 11.1593C364.035 11.1593 369.844 11.6064 369.052 7.33098C369.052 7.33098 357.209 5.12341 355.147 5.92316C353.083 6.72398 343.742 13.2576 342.156 15.254Z" fill="url(#paint0_linear_323_1416)" fill-opacity="0.2"/>
<path d="M43.4438 95.2168C46.7522 97.9103 49.3432 100.515 49.3432 100.515L97.7721 110.569L135.651 101.778L158.886 118.122L107.101 133.686L45.8627 117.321C39.2613 117.308 31.7069 118.777 26.7493 117.592C22.6469 116.612 18.6741 115.204 13.9592 111.759C10.9296 109.544 8.43192 107.448 8.752 106.945C9.55785 105.677 11.3027 106.252 11.3027 106.252L14.2745 108.066L17.299 109.498C17.299 109.498 5.21239 99.5663 5.43973 99.1795C6.24278 97.8106 8.75721 98.4594 8.75721 98.4594C8.75721 98.4594 4.52889 95.1879 4.98265 94.4784C6.13796 92.6742 8.2861 93.6651 8.2861 93.6651C8.2861 93.6651 7.98204 92.8528 8.28872 92.4251C9.52777 90.6999 12.991 92.2022 14.683 92.8365C14.683 92.8365 20.0652 95.6828 21.8712 96.156C31.9395 98.7978 34.1391 97.7758 35.5242 97.4824C34.8927 94.876 31.7164 93.9307 30.0043 91.4753C27.8097 88.3299 27.1274 81.5302 32.705 87.2185C37.6188 92.2302 40.1351 92.5239 43.4438 95.2168Z" fill="#FCBDA4"/>
<path d="M155 94C164.792 88.577 173.579 83.8966 187.5 84.4998L205.5 101.5H220L228.629 94.4996L236.5 88.4998C239.219 89.7744 241.551 91.3978 243.5 93.3142L270 84.9999L280 105L254 126.5V180.5L261.641 239.426L153.5 237L156.5 213.5L158.229 180.56V133.5L132.5 135L124.5 99.9999L155 94Z" fill="url(#paint1_linear_323_1416)"/>
<path d="M155 94C164.792 88.577 173.579 83.8966 187.5 84.4998L205.5 101.5H220L228.629 94.4996L236.5 88.4998C239.219 89.7744 241.551 91.3978 243.5 93.3142L270 84.9999L280 105L254 126.5V180.5L261.641 239.426L153.5 237L156.5 213.5L158.229 180.56V133.5L132.5 135L124.5 99.9999L155 94Z" fill="url(#paint2_linear_323_1416)" fill-opacity="0.2"/>
<path d="M205.5 102L187.5 85L225 86.5L235.5 89.5L220 101.5L205.5 102Z" fill="#FCBDA4"/>
<mask id="mask0_323_1416" style="mask-type:alpha" maskUnits="userSpaceOnUse" x="198" y="0" width="103" height="104">
<path d="M217.355 63.2403L198.264 87.1046L236.049 88.6956L237.64 85.1159C248.972 92.3299 255.593 96.348 267.868 103.412C283.344 86.4585 298.78 57.2743 299.289 51.7059C299.799 46.1376 302.06 44.5247 298.494 30.2281C294.928 15.9315 269.459 -0.000148583 257.527 0C245.595 0.000148585 245.813 0.473505 238.833 4.77286C230.661 11.9424 227.705 16.6116 223.719 25.4552C221.025 24.1303 219.613 23.6638 217.355 23.4665C209.607 25.494 206.943 30.8855 207.412 41.7625C210.262 51.1338 212.712 55.5758 217.355 63.2403Z" fill="#D9D9D9"/>
</mask>
<g mask="url(#mask0_323_1416)">
<path d="M225.911 105.261L238.18 85.2568C238.18 85.2568 260.843 102.789 267.69 103.482C267.69 103.482 293.877 74.4655 299.442 51.9704L252.846 13.0917L229.981 40.0102C231.553 33.8968 222.383 19.1754 214.032 23.9407C195.937 34.2665 217.51 63.2939 217.51 63.2939L197.764 87.1918" fill="#FCBDA4"/>
<path d="M225.911 105.261L238.18 85.2568C238.18 85.2568 260.843 102.789 267.69 103.482C267.69 103.482 293.877 74.4655 299.442 51.9704L252.846 13.0917L229.981 40.0102C231.553 33.8968 222.383 19.1754 214.032 23.9407C195.937 34.2665 217.51 63.2939 217.51 63.2939L197.764 87.1918" fill="url(#paint3_linear_323_1416)" fill-opacity="0.2"/>
<path d="M230.627 42.9012C230.126 33.1652 225.09 27.2677 223.628 25.7511C227.668 14.9998 241.087 -10.8955 272.948 4.43967C310.984 22.7481 299.442 51.9704 299.442 51.9704L254.679 21.9101L239.039 45.8265L230.627 42.9012V42.9012Z" fill="#563A2B"/>
<path d="M230.627 42.9012C230.126 33.1652 225.09 27.2677 223.628 25.7511C227.668 14.9998 241.087 -10.8955 272.948 4.43967C310.984 22.7481 299.442 51.9704 299.442 51.9704L254.679 21.9101L239.039 45.8265L230.627 42.9012V42.9012Z" fill="url(#paint4_linear_323_1416)" fill-opacity="0.2"/>
<path opacity="0.402158" fill-rule="evenodd" clip-rule="evenodd" d="M238.18 85.2566L224.317 71.2661L233.285 92.5713L238.18 85.2566Z" fill="black"/>
<path fill-rule="evenodd" clip-rule="evenodd" d="M272.457 61.8693L269.14 79.1027L262.408 74.8214L272.457 61.8693Z" fill="#C58268"/>
<path d="M258.5 90L258 82.5L261 84.5L263.5 87L262 91L258.5 90Z" fill="#FF7777"/>
<path d="M252.423 79.7527C258.097 81.2892 261.614 82.6449 265.488 88.5909" stroke="#942626" stroke-width="2"/>
</g>
<path d="M259.468 57.5857L261.532 63.9143" stroke="#0D0B6D" stroke-width="0.895522"/>
<path d="M257.523 62.032L263.476 59.468" stroke="#0D0B6D" stroke-width="0.895522"/>
<path d="M277.136 68.1746L279.201 74.5032" stroke="#0D0B6D" stroke-width="0.895522"/>
<path d="M275.192 72.6208L281.145 70.0569" stroke="#0D0B6D" stroke-width="0.895522"/>
<path d="M254 48.5L263.5 47" stroke="black"/>
<path d="M282.407 54.5447L288.769 61.7582" stroke="black"/>
<path d="M232.5 92L230 83.5H236L238.5 85.5L236 89L232.5 92Z" fill="#977162"/>
<defs>
<linearGradient id="paint0_linear_323_1416" x1="273" y1="95" x2="327" y2="43.5" gradientUnits="userSpaceOnUse">
<stop stop-color="#736161"/>
<stop offset="1" stop-color="#736161" stop-opacity="0"/>
</linearGradient>
<linearGradient id="paint1_linear_323_1416" x1="249.5" y1="111.5" x2="169.5" y2="156" gradientUnits="userSpaceOnUse">
<stop stop-color="#9ECBF7"/>
<stop offset="1" stop-color="#C6DFF7"/>
</linearGradient>
<linearGradient id="paint2_linear_323_1416" x1="273" y1="89" x2="232" y2="136" gradientUnits="userSpaceOnUse">
<stop stop-color="#736161"/>
<stop offset="1" stop-color="#736161" stop-opacity="0"/>
</linearGradient>
<linearGradient id="paint3_linear_323_1416" x1="286" y1="72" x2="259.5" y2="66" gradientUnits="userSpaceOnUse">
<stop stop-color="#736161"/>
<stop offset="1" stop-color="#736161" stop-opacity="0"/>
</linearGradient>
<linearGradient id="paint4_linear_323_1416" x1="278" y1="26.5" x2="248" y2="16" gradientUnits="userSpaceOnUse">
<stop/>
<stop offset="1" stop-opacity="0"/>
</linearGradient>
</defs>
</svg>
