<svg width="421" height="545" viewBox="0 0 421 545" fill="none" xmlns="http://www.w3.org/2000/svg">
<mask id="mask0_330_1558" style="mask-type:alpha" maskUnits="userSpaceOnUse" x="169" y="23" width="92" height="104">
<path d="M192.618 98.0125L187.028 126.883L220.956 111.146L220.677 107.391C234.007 108.384 241.704 108.797 255.791 109.237C261.443 87.8618 261.332 56.1324 259.172 51.18C257.012 46.2277 258.242 43.8374 248.415 33.326C238.589 22.8146 208.761 20.8214 198.282 26.2173C187.803 31.6132 188.216 31.9161 184.1 38.7182C180.281 48.4936 179.872 53.7899 180.512 63.092C177.526 63.1866 176.067 63.4297 173.992 64.2833C168.137 69.5063 168.322 75.2834 173.828 84.2952C180.719 90.9537 184.952 93.6123 192.618 98.0125Z" fill="#D9D9D9"/>
</mask>
<g mask="url(#mask0_330_1558)">
<path d="M223.792 130.739L225.199 108.226C225.199 108.226 253.312 112.846 259.65 110.337C259.65 110.337 269.059 73.8881 263.412 52.2954L204.284 40.3963L196.809 73.5635C195.327 67.6684 180.38 59.331 175.278 67.1483C164.222 84.0873 196.761 98.9482 196.761 98.9482L190.611 128.143" fill="#FCBDA4"/>
<path d="M223.792 130.739L225.199 108.226C225.199 108.226 253.312 112.846 259.65 110.337C259.65 110.337 269.059 73.8881 263.412 52.2954L204.284 40.3963L196.809 73.5635C195.327 67.6684 180.38 59.331 175.278 67.1483C164.222 84.0873 196.761 98.9482 196.761 98.9482L190.611 128.143" fill="url(#paint0_linear_330_1558)" fill-opacity="0.2"/>
<path d="M198.731 75.7228C193.731 67.6934 186.547 64.9692 184.553 64.3442C183.066 53.4002 182.724 25.372 217.886 23.9692C259.864 22.2946 263.411 52.2956 263.411 52.2956L210.024 47.0455L207.488 74.3998L198.731 75.7228V75.7228Z" fill="#563A2B"/>
<path d="M198.731 75.7228C193.731 67.6934 186.547 64.9692 184.553 64.3442C183.066 53.4002 182.724 25.372 217.886 23.9692C259.864 22.2946 263.411 52.2956 263.411 52.2956L210.024 47.0455L207.488 74.3998L198.731 75.7228V75.7228Z" fill="url(#paint1_linear_330_1558)" fill-opacity="0.2"/>
<path opacity="0.402158" fill-rule="evenodd" clip-rule="evenodd" d="M225.199 108.226L206.472 102.631L224.326 116.642L225.199 108.226Z" fill="black"/>
<path fill-rule="evenodd" clip-rule="evenodd" d="M244.349 72.8928L249.507 89.007L241.589 88.4207L244.349 72.8928Z" fill="#C58268"/>
<path d="M246.803 97.0486C240.36 102.285 229.608 100.187 224.072 93.7557C232.609 96.6252 237.591 97.2624 246.803 97.0486Z" stroke="#942626" stroke-width="2"/>
</g>
<path d="M218.178 64.3696L227.293 61.5454" stroke="black"/>
<path d="M245.676 61.2215L254.64 64.4622" stroke="black"/>
<ellipse cx="3.46642" cy="3.38124" rx="3.46642" ry="3.38124" transform="matrix(0.851775 -0.514892 0.546651 0.843218 226.016 74.2751)" fill="white"/>
<ellipse cx="2.47601" cy="2.41517" rx="2.47601" ry="2.41517" transform="matrix(0.851775 -0.514892 0.546651 0.843218 227.218 74.9824)" fill="#0D0B6D"/>
<ellipse cx="3.46642" cy="3.38124" rx="3.46642" ry="3.38124" transform="matrix(0.851775 -0.514892 0.546651 0.843218 248.546 74.3096)" fill="white"/>
<ellipse cx="2.47601" cy="2.41517" rx="2.47601" ry="2.41517" transform="matrix(0.851775 -0.514892 0.546651 0.843218 249.748 75.0171)" fill="#0D0B6D"/>
<path d="M292.329 470.749L309.067 467.722L313.423 477.896L300.007 484.834L292.329 470.749Z" fill="#CF3E83"/>
<path d="M312.482 473.231L317.759 485.472C317.759 485.472 348.017 470.04 364.687 473.307L313.119 509.004L295.491 475.677L312.482 473.231Z" fill="#0D0B6D"/>
<path d="M284.322 479.044C236.29 376.072 201.93 318.105 175.983 217.419L231.852 212.674L317.476 467.407L284.322 479.044Z" fill="#2C292E"/>
<path d="M138.439 465.834L121.46 464.58L118.273 475.151L132.39 480.641L138.439 465.834Z" fill="#CF3E83"/>
<path d="M118.793 471.371L114.924 484.092C114.924 484.092 83.1085 471.923 66.9046 476.919L122.182 506.998L135.958 472.02L118.793 471.371Z" fill="#0D0B6D"/>
<path d="M147.332 473.24C183.5 365.841 211.14 304.615 225.611 201.803L169.539 202.944L113.065 465.149L147.332 473.24Z" fill="#2C292E"/>
<path d="M341.534 47.3725C339.955 49.2922 331.821 66.669 331.821 66.669L293.973 93.3773L249.284 120.95L267.614 134.373L308.077 108.31L341.454 75.5307C352.656 75.4768 364.208 58.09 364.208 58.09C364.208 58.09 363.668 62.4833 365.855 62.3755C366.828 62.328 373.795 60.1817 368.26 46.9571C367.672 45.553 363.309 43.4373 363.309 43.4373C363.309 43.4373 369.091 43.8669 368.302 39.758C368.302 39.758 356.515 37.6364 354.463 38.405C352.409 39.1746 343.112 45.4538 341.534 47.3725Z" fill="#FCBDA4"/>
<path d="M341.534 47.3725C339.955 49.2922 331.821 66.669 331.821 66.669L293.973 93.3773L249.284 120.95L267.614 134.373L308.077 108.31L341.454 75.5307C352.656 75.4768 364.208 58.09 364.208 58.09C364.208 58.09 363.668 62.4833 365.855 62.3755C366.828 62.328 373.795 60.1817 368.26 46.9571C367.672 45.553 363.309 43.4373 363.309 43.4373C363.309 43.4373 369.091 43.8669 368.302 39.758C368.302 39.758 356.515 37.6364 354.463 38.405C352.409 39.1746 343.112 45.4538 341.534 47.3725Z" fill="url(#paint2_linear_330_1558)" fill-opacity="0.2"/>
<path d="M87.4645 54.827C88.1003 58.8808 88.2668 62.408 88.2668 62.408L117.225 100.849L151.018 119.065L157.203 145.705L108.633 123.324L74.4582 72.1174C69.603 67.8431 63.0538 64.0078 60.193 59.9624C57.826 56.6146 55.8404 53.0464 54.6715 47.5487C53.9209 44.0157 53.483 40.9105 54.0555 40.7592C55.4974 40.3779 56.3984 41.9142 56.3984 41.9142L57.3743 45.1251L58.645 48.0979C58.645 48.0979 56.3837 33.2226 56.8101 33.0943C58.3176 32.6391 59.7363 34.7252 59.7363 34.7252C59.7363 34.7252 58.8094 29.6658 59.6185 29.4541C61.6768 28.9167 62.5967 31.0095 62.5967 31.0095C62.5967 31.0095 62.9162 30.2351 63.4282 30.129C65.4955 29.7019 67.0422 33.0082 67.8646 34.5526C67.8646 34.5526 69.9263 40.055 70.9404 41.5585C76.5918 49.9426 78.8963 50.6365 80.1132 51.3227C81.3916 49.0601 79.6837 46.3355 80.0649 43.4824C80.5521 39.8265 84.5987 34.5476 84.9028 42.1983C85.1705 48.9388 86.8281 50.7734 87.4645 54.827Z" fill="#FCBDA4"/>
<path d="M160.736 115.845C173.329 114.875 178.312 114.139 189 110L205.523 125.456H219.955L228.542 118.728L235.381 113.923C238.087 115.148 241.404 115.747 243.343 117.589L269.718 109.598L279.671 128.819L253.794 149.482V201.379L261.398 258.01L153.769 255.679L156.755 233.094L158.476 201.437V150.924L125.902 134.105L134.362 106.715L160.736 115.845Z" fill="url(#paint3_linear_330_1558)"/>
<path d="M160.736 115.845C173.329 114.875 178.312 114.139 189 110L205.523 125.456H219.955L228.542 118.728L235.381 113.923C238.087 115.148 241.404 115.747 243.343 117.589L269.718 109.598L279.671 128.819L253.794 149.482V201.379L261.398 258.01L153.769 255.679L156.755 233.094L158.476 201.437V150.924L125.902 134.105L134.362 106.715L160.736 115.845Z" fill="url(#paint4_linear_330_1558)" fill-opacity="0.2"/>
<path d="M205.523 125.936L189 110L191.5 109.239L195 108.5L195.5 109.478L221 111C225.512 113.263 228.765 113.793 235.381 113.923L219.955 125.456L205.523 125.936Z" fill="#FCBDA4"/>
<path d="M350.912 116.38C342.897 114.081 333.325 111.5 332.183 110.952C331.884 109.749 331.868 108.906 332.336 106.831C338.794 84.712 344.585 61.2603 346.936 60.0464C350.312 57.058 351.892 55.2524 353.562 51.5551L360.987 31.3224C360.552 30.2047 361.337 28.9432 362.24 27.0003C361.95 26.1862 362.657 25.5595 363.757 25.3577C364.857 25.1558 370 27.1671 370 27.1671" stroke="#452B1E"/>
<path d="M360.987 31.3224C360.552 30.2047 361.337 28.9432 362.24 27.0003C361.95 26.1862 362.657 25.5595 363.757 25.3577C364.857 25.1558 370 27.1671 370 27.1671L350.912 116.38C342.897 114.081 333.325 111.5 332.183 110.952C331.884 109.749 331.868 108.906 332.336 106.831C338.793 84.712 344.585 61.2603 346.936 60.0464C350.312 57.058 351.892 55.2524 353.562 51.5551L360.987 31.3224Z" fill="#D76816"/>
<path d="M331.988 110.895C339.989 113.239 349.458 116.176 350.717 116.323C351.612 115.467 352.076 114.763 352.791 112.76C359.161 90.615 366.807 67.7006 365.47 65.4179C364.215 61.0873 363.846 58.7168 364.412 54.6997L368.956 33.6319C369.921 32.9201 369.933 31.4343 370.209 29.3098C370.889 28.7766 370.626 27.869 369.805 27.1105C368.984 26.3519 363.562 25.3011 363.562 25.3011" stroke="#452B1E"/>
<path d="M368.956 33.6322C369.921 32.9203 369.933 31.4345 370.209 29.31C370.889 28.7769 370.626 27.8693 369.805 27.1107C368.984 26.3521 363.562 25.3013 363.562 25.3013L350.717 116.323C351.612 115.467 352.076 114.763 352.791 112.76C359.161 90.6152 366.807 67.7009 365.47 65.4181C364.215 61.0876 363.846 58.7171 364.412 54.6999L368.956 33.6322Z" fill="#D76816"/>
<path d="M364 28C362.735 30.6496 362.494 31.3818 362.5 32" stroke="white" stroke-width="0.5"/>
<path d="M370.667 29.4428C371.402 28.9258 371.084 28.002 370.153 27.2114C369.221 26.4208 363.192 25.1941 363.192 25.1941" stroke="#D9D9D9"/>
<path d="M363.404 25.2555C364.614 25.0856 370.365 27.2729 370.365 27.2729C371.182 28.2496 371.205 28.7249 370.667 29.4427L361.776 26.866C361.431 26.0358 362.194 25.4253 363.404 25.2555Z" fill="#D9D9D9" stroke="#D9D9D9"/>
<path d="M350.289 63.9104C351.326 62.1288 364.293 65.8866 363.736 67.8075L350.792 112.47L336.865 108.433C336.865 108.433 349.252 65.692 350.289 63.9104Z" fill="#F39C11"/>
<path d="M368.739 34.3789L360.575 32.0128L353.149 52.2454L364.675 55.5858L368.739 34.3789Z" fill="#BEC3C7" stroke="#BEC3C7"/>
<path d="M360 32.5C363.339 34.0539 365.278 34.7012 369 35" stroke="#452B1E" stroke-width="0.5"/>
<path d="M356 43C360.081 44.8647 362.451 45.6415 367 46" stroke="#452B1E" stroke-width="0.5"/>
<path d="M354 48C358.452 49.8647 361.037 50.6415 366 51" stroke="#452B1E" stroke-width="0.5"/>
<path d="M354.5 53L362.5 32L357 54L354.5 53Z" fill="white"/>
<path d="M348 61.5002C350.502 59.6758 352.326 57.4877 354.5 52.9991C354.5 52.9991 357 51.9993 357 54C357 56.0007 351.5 61.5 350.5 61.5L348 61.5002Z" fill="white"/>
<path d="M333.5 111L348 61.5001L351.805 60.5487C351.875 60.5078 351.94 60.4913 352 60.5L351.805 60.5487C349.486 61.9097 341.964 90.2592 336 112L333.5 111Z" fill="#F4F4F4"/>
<defs>
<linearGradient id="paint0_linear_330_1558" x1="260.987" y1="75.3595" x2="235.036" y2="82.7172" gradientUnits="userSpaceOnUse">
<stop stop-color="#736161"/>
<stop offset="1" stop-color="#736161" stop-opacity="0"/>
</linearGradient>
<linearGradient id="paint1_linear_330_1558" x1="232.654" y1="40.3921" x2="201.443" y2="45.3834" gradientUnits="userSpaceOnUse">
<stop/>
<stop offset="1" stop-opacity="0"/>
</linearGradient>
<linearGradient id="paint2_linear_330_1558" x1="272.705" y1="124.013" x2="324.656" y2="72.7032" gradientUnits="userSpaceOnUse">
<stop stop-color="#736161"/>
<stop offset="1" stop-color="#736161" stop-opacity="0"/>
</linearGradient>
<linearGradient id="paint3_linear_330_1558" x1="249.315" y1="135.066" x2="171.034" y2="180.16" gradientUnits="userSpaceOnUse">
<stop stop-color="#9ECBF7"/>
<stop offset="1" stop-color="#C6DFF7"/>
</linearGradient>
<linearGradient id="paint4_linear_330_1558" x1="272.704" y1="113.443" x2="233.51" y2="159.971" gradientUnits="userSpaceOnUse">
<stop stop-color="#736161"/>
<stop offset="1" stop-color="#736161" stop-opacity="0"/>
</linearGradient>
</defs>
</svg>
